<?xml version="1.0" encoding="UTF-8"?>
<!DOCTYPE svg PUBLIC "-//W3C//DTD SVG 1.1//EN" "http://www.w3.org/Graphics/SVG/1.1/DTD/svg11.dtd">
<svg xmlns="http://www.w3.org/2000/svg" xmlns:xlink="http://www.w3.org/1999/xlink" version="1.1" width="193px" height="193px" viewBox="-0.5 -0.5 193 193"><defs/><g><rect x="0" y="0" width="192" height="192" fill="none" stroke="none" pointer-events="all"/><path d="M 67.66 24.37 L 124.49 24.37 L 124.49 16.25 L 67.66 16.25 Z M 67.66 43.32 L 124.49 43.32 L 124.49 35.2 L 67.66 35.2 Z M 67.66 62.28 L 124.49 62.28 L 124.49 54.16 L 67.66 54.16 Z M 67.66 81.23 L 124.49 81.23 L 124.49 73.11 L 67.66 73.11 Z M 67.66 100.19 L 124.49 100.19 L 124.49 92.06 L 67.66 92.06 Z M 67.66 119.14 L 124.49 119.14 L 124.49 111.02 L 67.66 111.02 Z M 67.66 138.1 L 124.49 138.1 L 124.49 129.97 L 67.66 129.97 Z M 67.66 157.05 L 124.49 157.05 L 124.49 148.93 L 67.66 148.93 Z M 0 192 L 0 13.54 L 48.71 13.54 L 48.71 29.79 L 10.83 29.79 L 10.83 37.91 L 48.71 37.91 L 48.71 48.74 L 10.83 48.74 L 10.83 56.86 L 48.71 56.86 L 48.71 67.69 L 10.83 67.69 L 10.83 75.82 L 48.71 75.82 L 48.71 86.65 L 10.83 86.65 L 10.83 94.77 L 48.71 94.77 L 48.71 105.6 L 10.83 105.6 L 10.83 113.73 L 48.71 113.73 L 48.71 124.56 L 10.83 124.56 L 10.83 132.68 L 48.71 132.68 L 48.71 143.51 L 10.83 143.51 L 10.83 151.64 L 48.71 151.64 L 48.71 162.47 L 10.83 162.47 L 10.83 170.59 L 48.71 170.59 L 48.71 192 Z M 56.83 192 L 56.83 0 L 135.31 0 L 135.31 192 Z M 67.66 176.01 L 124.49 176.01 L 124.49 167.88 L 67.66 167.88 Z M 143.43 192 L 143.43 170.59 L 181.32 170.59 L 181.32 162.47 L 143.43 162.47 L 143.43 151.64 L 181.32 151.64 L 181.32 143.51 L 143.43 143.51 L 143.43 132.68 L 181.32 132.68 L 181.32 124.56 L 143.43 124.56 L 143.43 113.73 L 181.32 113.73 L 181.32 105.6 L 143.43 105.6 L 143.43 94.77 L 181.32 94.77 L 181.32 86.65 L 143.43 86.65 L 143.43 75.82 L 181.32 75.82 L 181.32 67.69 L 143.43 67.69 L 143.43 56.86 L 181.32 56.86 L 181.32 48.74 L 143.43 48.74 L 143.43 37.91 L 181.32 37.91 L 181.32 29.79 L 143.43 29.79 L 143.43 13.54 L 192 13.54 L 192 192 Z" fill="#0f6dd2" stroke="none" pointer-events="all"/></g></svg>